<svg width="20" height="20" viewBox="0 0 20 20" fill="none" xmlns="http://www.w3.org/2000/svg">
<path d="M1.84375 4.65625C1.37776 4.65625 1 5.03401 1 5.5C1 5.96599 1.37776 6.34375 1.84375 6.34375V4.65625ZM18.1562 6.34375C18.6222 6.34375 19 5.96599 19 5.5C19 5.03401 18.6222 4.65625 18.1562 4.65625V6.34375ZM1.84375 6.34375H18.1562V4.65625H1.84375V6.34375Z" fill="#595667"/>
<path d="M4.09375 9.15625C3.62776 9.15625 3.25 9.53402 3.25 10C3.25 10.466 3.62776 10.8438 4.09375 10.8438V9.15625ZM15.9062 10.8438C16.3722 10.8438 16.75 10.466 16.75 10C16.75 9.53402 16.3722 9.15625 15.9062 9.15625V10.8438ZM4.09375 10.8438H15.9062V9.15625H4.09375V10.8438Z" fill="#595667"/>
<path d="M6.34375 13.6562C5.87776 13.6562 5.5 14.034 5.5 14.5C5.5 14.966 5.87776 15.3438 6.34375 15.3438V13.6562ZM13.6562 15.3438C14.1222 15.3438 14.5 14.966 14.5 14.5C14.5 14.034 14.1222 13.6562 13.6562 13.6562V15.3438ZM6.34375 15.3438H13.6562V13.6562H6.34375V15.3438Z" fill="#595667"/>
</svg>
